# 3ds Max Wavefront OBJ Exporter v0.97b - (c)2007 guruware
# File Created: 19.02.2021 13:06:30

mtllib octa_frame.mtl

#
# object Sphere001
#

v  0.0000 1.0000 -0.0000
v  -0.0000 -0.0000 -1.0000
v  -0.0522 0.0522 -0.8956
v  -0.0522 0.8956 -0.0522
v  -1.0000 -0.0000 0.0000
v  -0.8956 0.0522 -0.0522
v  -0.8956 0.0522 0.0522
v  -0.0522 0.8956 0.0522
v  0.0000 -0.0000 1.0000
v  -0.0522 0.0522 0.8956
v  0.0522 0.0522 0.8956
v  0.0522 0.8956 0.0522
v  1.0000 -0.0000 -0.0000
v  0.8956 0.0522 0.0522
v  0.8956 0.0522 -0.0522
v  0.0522 0.8956 -0.0522
v  0.0522 0.0522 -0.8956
v  0.0000 -1.0000 -0.0000
v  -0.8956 -0.0522 -0.0522
v  -0.0522 -0.8956 -0.0522
v  -0.0522 -0.0522 -0.8956
v  -0.0522 -0.0522 0.8956
v  -0.0522 -0.8956 0.0522
v  -0.8956 -0.0522 0.0522
v  0.8956 -0.0522 0.0522
v  0.0522 -0.8956 0.0522
v  0.0522 -0.0522 0.8956
v  0.0522 -0.0522 -0.8956
v  0.0522 -0.8956 -0.0522
v  0.8956 -0.0522 -0.0522
v  -0.0426 0.0426 -0.8860
v  -0.0426 0.8860 -0.0426
v  -0.8860 0.0426 -0.0426
v  -0.8860 0.0426 0.0426
v  -0.0426 0.8860 0.0426
v  -0.0426 0.0426 0.8860
v  0.0426 0.0426 0.8860
v  0.0426 0.8860 0.0426
v  0.8860 0.0426 0.0426
v  0.8860 0.0426 -0.0426
v  0.0426 0.8860 -0.0426
v  0.0426 0.0426 -0.8860
v  -0.8860 -0.0426 -0.0426
v  -0.0426 -0.8860 -0.0426
v  -0.0426 -0.0426 -0.8860
v  -0.0426 -0.0426 0.8860
v  -0.0426 -0.8860 0.0426
v  -0.8860 -0.0426 0.0426
v  0.8860 -0.0426 0.0426
v  0.0426 -0.8860 0.0426
v  0.0426 -0.0426 0.8860
v  0.0426 -0.0426 -0.8860
v  0.0426 -0.8860 -0.0426
v  0.8860 -0.0426 -0.0426
# 54 vertices

vn -0.5774 0.5774 -0.5774
vn -0.5773 0.5774 -0.5774
vn -0.5774 0.5773 -0.5774
vn -0.5774 0.5774 -0.5773
vn -0.5774 0.5774 0.5773
vn -0.5774 0.5774 0.5774
vn -0.5774 0.5773 0.5774
vn -0.5773 0.5774 0.5774
vn 0.5774 0.5774 0.5774
vn 0.5774 0.5774 0.5773
vn 0.5774 0.5774 -0.5774
vn 0.5774 0.5773 -0.5774
vn 0.5773 0.5774 -0.5774
vn -0.5774 -0.5774 -0.5774
vn -0.5774 -0.5774 -0.5773
vn -0.5774 -0.5773 -0.5774
vn -0.5773 -0.5774 0.5774
vn -0.5774 -0.5774 0.5774
vn -0.5774 -0.5773 0.5774
vn -0.5774 -0.5774 0.5773
vn 0.5774 -0.5774 0.5774
vn 0.5774 -0.5773 0.5774
vn 0.5773 -0.5774 -0.5774
vn 0.5774 -0.5774 -0.5774
vn 0.5774 -0.5773 -0.5774
vn -0.8165 -0.4082 0.4082
vn 0.4082 0.8165 0.4082
vn 0.4082 -0.4082 -0.8165
vn 0.4082 -0.4082 0.8165
vn 0.4082 0.8165 -0.4082
vn -0.8165 -0.4082 -0.4082
vn 0.8165 -0.4082 -0.4082
vn -0.4082 0.8165 -0.4082
vn -0.4082 -0.4082 0.8165
vn -0.4082 -0.4082 -0.8165
vn -0.4082 0.8165 0.4082
vn 0.8165 -0.4082 0.4082
vn 0.4082 0.4082 -0.8165
vn 0.4082 -0.8165 0.4082
vn -0.8165 0.4082 0.4082
vn -0.8165 0.4082 -0.4082
vn 0.4082 -0.8165 -0.4082
vn 0.4082 0.4082 0.8165
vn -0.4082 0.4082 0.8165
vn -0.4082 -0.8165 -0.4082
vn 0.8165 0.4082 -0.4082
vn 0.8165 0.4082 0.4082
vn -0.4082 -0.8165 0.4082
vn -0.4082 0.4082 -0.8165
vn -0.0000 -0.7071 0.7071
vn 0.0000 -0.7071 0.7071
vn -0.7071 0.0000 0.7071
vn 0.7071 -0.0000 0.7071
vn 0.7071 0.0000 0.7071
vn 0.0000 0.7071 0.7071
vn -0.0000 0.7071 0.7071
vn 0.0000 0.0000 1.0000
vn 0.7071 -0.7071 0.0000
vn 0.7071 -0.7071 -0.0000
vn 0.7071 0.0000 -0.7071
vn 0.7071 0.7071 -0.0000
vn 0.7071 0.7071 0.0000
vn 1.0000 0.0000 -0.0000
vn -0.0000 -0.7071 -0.7071
vn 0.0000 -0.7071 -0.7071
vn -0.7071 0.0000 -0.7071
vn -0.0000 0.0000 -1.0000
vn 0.0000 0.7071 -0.7071
vn -0.0000 0.7071 -0.7071
vn -0.7071 0.7071 0.0000
vn 0.0000 1.0000 -0.0000
vn -0.0000 1.0000 0.0000
vn -1.0000 0.0000 0.0000
vn -0.7071 -0.7071 0.0000
vn -0.0000 -1.0000 -0.0000
vn 0.0000 -1.0000 0.0000
# 76 vertex normals

vt 0.0000 1.0000 0.0000
vt 0.0000 0.5000 0.0000
vt 0.2500 0.5000 0.0000
vt 0.2500 1.0000 0.0000
vt 0.5000 0.5000 0.0000
vt 0.5000 1.0000 0.0000
vt 0.7500 0.5000 0.0000
vt 0.7500 1.0000 0.0000
vt 1.0000 0.5000 0.0000
vt 0.0000 0.0000 0.0000
vt 0.2500 0.0000 0.0000
vt 0.5000 0.0000 0.0000
vt 0.7500 0.0000 0.0000
# 13 texture coords

g Sphere001
usemtl wire_086086086
s off
f 1/1/1 2/2/1 3/2/1 
f 3/2/2 4/1/2 1/1/2 
f 2/2/3 5/3/3 6/3/3 
f 6/3/1 3/2/1 2/2/1 
f 5/3/4 1/1/4 4/1/4 
f 4/1/4 6/3/4 5/3/4 
f 1/4/5 5/3/5 7/3/5 
f 7/3/6 8/4/6 1/4/6 
f 5/3/7 9/5/7 10/5/7 
f 10/5/7 7/3/7 5/3/7 
f 9/5/6 1/4/6 8/4/6 
f 8/4/8 10/5/8 9/5/8 
f 1/6/9 9/5/9 11/5/9 
f 11/5/9 12/6/9 1/6/9 
f 9/5/9 13/7/9 14/7/9 
f 14/7/9 11/5/9 9/5/9 
f 13/7/9 1/6/9 12/6/9 
f 12/6/10 14/7/10 13/7/10 
f 1/8/11 13/7/11 15/7/11 
f 15/7/11 16/8/11 1/8/11 
f 13/7/12 2/9/12 17/9/12 
f 17/9/11 15/7/11 13/7/11 
f 2/9/11 1/8/11 16/8/11 
f 16/8/13 17/9/13 2/9/13 
f 18/10/14 5/3/14 19/3/14 
f 19/3/15 20/10/15 18/10/15 
f 5/3/14 2/2/14 21/2/14 
f 21/2/16 19/3/16 5/3/16 
f 2/2/14 18/10/14 20/10/14 
f 20/10/14 21/2/14 2/2/14 
f 18/11/17 9/5/17 22/5/17 
f 22/5/18 23/11/18 18/11/18 
f 9/5/19 5/3/19 24/3/19 
f 24/3/19 22/5/19 9/5/19 
f 5/3/18 18/11/18 23/11/18 
f 23/11/20 24/3/20 5/3/20 
f 18/12/21 13/7/21 25/7/21 
f 25/7/21 26/12/21 18/12/21 
f 13/7/21 9/5/21 27/5/21 
f 27/5/22 25/7/22 13/7/22 
f 9/5/21 18/12/21 26/12/21 
f 26/12/21 27/5/21 9/5/21 
f 18/13/23 2/9/23 28/9/23 
f 28/9/24 29/13/24 18/13/24 
f 2/9/24 13/7/24 30/7/24 
f 30/7/25 28/9/25 2/9/25 
f 13/7/24 18/13/24 29/13/24 
f 29/13/24 30/7/24 13/7/24 
f 4/1/26 3/2/26 31/2/26 
f 31/2/26 32/1/26 4/1/26 
f 3/2/27 6/3/27 33/3/27 
f 33/3/27 31/2/27 3/2/27 
f 6/3/28 4/1/28 32/1/28 
f 32/1/28 33/3/28 6/3/28 
f 8/4/29 7/3/29 34/3/29 
f 34/3/29 35/4/29 8/4/29 
f 7/3/30 10/5/30 36/5/30 
f 36/5/30 34/3/30 7/3/30 
f 10/5/31 8/4/31 35/4/31 
f 35/4/31 36/5/31 10/5/31 
f 12/6/32 11/5/32 37/5/32 
f 37/5/32 38/6/32 12/6/32 
f 11/5/33 14/7/33 39/7/33 
f 39/7/33 37/5/33 11/5/33 
f 14/7/34 12/6/34 38/6/34 
f 38/6/34 39/7/34 14/7/34 
f 16/8/35 15/7/35 40/7/35 
f 40/7/35 41/8/35 16/8/35 
f 15/7/36 17/9/36 42/9/36 
f 42/9/36 40/7/36 15/7/36 
f 17/9/37 16/8/37 41/8/37 
f 41/8/37 42/9/37 17/9/37 
f 20/10/38 19/3/38 43/3/38 
f 43/3/38 44/10/38 20/10/38 
f 19/3/39 21/2/39 45/2/39 
f 45/2/39 43/3/39 19/3/39 
f 21/2/40 20/10/40 44/10/40 
f 44/10/40 45/2/40 21/2/40 
f 23/11/41 22/5/41 46/5/41 
f 46/5/41 47/11/41 23/11/41 
f 22/5/42 24/3/42 48/3/42 
f 48/3/42 46/5/42 22/5/42 
f 24/3/43 23/11/43 47/11/43 
f 47/11/43 48/3/43 24/3/43 
f 26/12/44 25/7/44 49/7/44 
f 49/7/44 50/12/44 26/12/44 
f 25/7/45 27/5/45 51/5/45 
f 51/5/45 49/7/45 25/7/45 
f 27/5/46 26/12/46 50/12/46 
f 50/12/46 51/5/46 27/5/46 
f 29/13/47 28/9/47 52/9/47 
f 52/9/47 53/13/47 29/13/47 
f 28/9/48 30/7/48 54/7/48 
f 54/7/48 52/9/48 28/9/48 
f 30/7/49 29/13/49 53/13/49 
f 53/13/49 54/7/49 30/7/49 
s 1
f 41/3/50 32/3/50 31/12/51 
f 31/12/51 42/3/51 41/3/50 
s 2
f 54/5/52 40/4/52 42/3/52 
f 42/3/52 52/11/52 54/5/52 
f 45/5/53 31/12/54 33/7/53 
f 33/7/53 43/6/53 45/5/53 
s 1
f 52/11/55 45/5/55 44/5/56 
f 44/5/56 53/2/56 52/11/55 
s 4
f 45/5/57 52/11/57 42/3/57 
f 42/3/57 31/12/57 45/5/57 
f 34/13/58 33/7/58 32/3/59 
f 32/3/59 35/5/59 34/13/58 
s 1
f 48/7/60 34/13/60 36/9/60 
f 36/9/60 46/8/60 48/7/60 
s 4
f 47/7/61 44/5/61 43/6/62 
f 43/6/62 48/7/62 47/7/61 
s 8
f 48/7/63 43/6/63 33/7/63 
f 33/7/63 34/13/63 48/7/63 
s 2
f 37/1/64 36/9/64 35/5/65 
f 35/5/65 38/7/65 37/1/64 
s 1
f 51/3/66 37/1/66 39/2/66 
f 39/2/66 49/10/66 51/3/66 
s 4
f 51/3/67 46/8/67 36/9/67 
f 36/9/67 37/1/67 51/3/67 
s 2
f 50/9/68 47/7/68 46/8/69 
f 46/8/69 51/3/69 50/9/68 
s 4
f 53/2/70 50/9/70 49/10/70 
f 49/10/70 54/5/70 53/2/70 
s 8
f 50/9/71 53/2/72 44/5/72 
f 44/5/72 47/7/71 50/9/71 
f 39/2/73 40/4/73 54/5/73 
f 54/5/73 49/10/73 39/2/73 
s 4
f 40/4/74 39/2/74 38/7/74 
f 38/7/74 41/3/74 40/4/74 
s 8
f 35/5/75 32/3/75 41/3/76 
f 41/3/76 38/7/76 35/5/75 
# 132 faces

