# 3ds Max Wavefront OBJ Exporter v0.97b - (c)2007 guruware
# File Created: 20.02.2021 12:19:21

mtllib tetra_frame.mtl

#
# object GeoSphere001
#

v  0.0000 1.0000 -0.0000
v  0.9428 -0.3333 -0.0000
v  0.8188 -0.2632 -0.0429
v  0.0248 0.8597 -0.0429
v  -0.4714 -0.3333 -0.8165
v  -0.3722 -0.2632 -0.7306
v  -0.4466 -0.2632 -0.6877
v  -0.0496 0.8597 -0.0000
v  -0.4714 -0.3333 0.8165
v  -0.4466 -0.2632 0.6877
v  -0.3722 -0.2632 0.7306
v  0.0248 0.8597 0.0429
v  0.8188 -0.2632 0.0429
v  -0.3970 -0.3333 0.6877
v  0.7940 -0.3333 -0.0000
v  -0.3970 -0.3333 -0.6877
v  0.8109 -0.2688 -0.0291
v  0.0168 0.8541 -0.0291
v  -0.3802 -0.2688 -0.7168
v  -0.4307 -0.2688 -0.6877
v  -0.0336 0.8541 -0.0000
v  -0.4307 -0.2688 0.6877
v  -0.3802 -0.2688 0.7168
v  0.0168 0.8541 0.0291
v  0.8109 -0.2688 0.0291
v  -0.3970 -0.3164 0.6877
v  0.7940 -0.3164 -0.0000
v  -0.3970 -0.3164 -0.6877
# 28 vertices

vn 0.4714 0.3333 -0.8165
vn -0.9428 0.3333 -0.0000
vn -0.9428 0.3333 0.0000
vn 0.4714 0.3333 0.8165
vn 0.0000 -1.0000 -0.0000
vn -0.6667 -0.4714 -0.5773
vn -0.6667 -0.4714 -0.5774
vn -0.1667 0.9428 0.2887
vn 0.8333 -0.4714 0.2887
vn -0.1667 -0.4714 0.8660
vn 0.3333 0.9428 -0.0000
vn -0.1667 -0.4714 -0.8660
vn 0.8333 -0.4714 -0.2887
vn -0.1667 0.9428 -0.2887
vn -0.6667 -0.4714 0.5774
vn -0.6667 -0.4714 0.5773
vn -0.5000 0.0000 -0.8660
vn 1.0000 0.0000 -0.0000
vn -0.5000 0.0000 0.8660
vn -0.4082 0.5774 -0.7071
vn -0.4082 0.5774 0.7071
vn -0.8165 -0.5774 -0.0000
vn 0.8165 0.5774 -0.0000
vn 0.4082 -0.5774 0.7071
vn 0.4082 -0.5774 -0.7071
# 25 vertex normals

vt 0.6667 1.0000 20.9520
vt 0.5000 0.3918 20.9520
vt 0.8333 0.3918 20.9520
vt 0.0000 1.0000 20.9520
vt -0.1667 0.3918 20.9520
vt 0.1667 0.3918 20.9520
vt 0.3333 1.0000 20.9520
# 7 texture coords

g GeoSphere001
usemtl wire_086086086
s off
f 1/1/1 2/2/1 3/2/1 
f 3/2/1 4/1/1 1/1/1 
f 2/2/1 5/3/1 6/3/1 
f 6/3/1 3/2/1 2/2/1 
f 5/3/1 1/1/1 4/1/1 
f 4/1/1 6/3/1 5/3/1 
f 1/4/2 5/5/2 7/5/2 
f 7/5/3 8/4/3 1/4/3 
f 5/5/2 9/6/2 10/6/2 
f 10/6/2 7/5/2 5/5/2 
f 9/6/2 1/4/2 8/4/2 
f 8/4/3 10/6/3 9/6/3 
f 1/7/4 9/6/4 11/6/4 
f 11/6/4 12/7/4 1/7/4 
f 9/6/4 2/2/4 13/2/4 
f 13/2/4 11/6/4 9/6/4 
f 2/2/4 1/7/4 12/7/4 
f 12/7/4 13/2/4 2/2/4 
f 2/2/5 9/6/5 14/6/5 
f 14/6/5 15/2/5 2/2/5 
f 9/6/5 5/5/5 16/5/5 
f 16/5/5 14/6/5 9/6/5 
f 5/5/5 2/2/5 15/2/5 
f 15/2/5 16/5/5 5/5/5 
f 4/1/6 3/2/6 17/2/6 
f 17/2/7 18/1/7 4/1/7 
f 3/2/8 6/3/8 19/3/8 
f 19/3/8 17/2/8 3/2/8 
f 6/3/9 4/1/9 18/1/9 
f 18/1/9 19/3/9 6/3/9 
f 8/4/10 7/5/10 20/5/10 
f 20/5/10 21/4/10 8/4/10 
f 7/5/11 10/6/11 22/6/11 
f 22/6/11 20/5/11 7/5/11 
f 10/6/12 8/4/12 21/4/12 
f 21/4/12 22/6/12 10/6/12 
f 12/7/13 11/6/13 23/6/13 
f 23/6/13 24/7/13 12/7/13 
f 11/6/14 13/2/14 25/2/14 
f 25/2/14 23/6/14 11/6/14 
f 13/2/15 12/7/15 24/7/15 
f 24/7/16 25/2/16 13/2/16 
f 15/2/17 14/6/17 26/6/17 
f 26/6/17 27/2/17 15/2/17 
f 14/6/18 16/5/18 28/5/18 
f 28/5/18 26/6/18 14/6/18 
f 16/5/19 15/2/19 27/2/19 
f 27/2/19 28/5/19 16/5/19 
f 26/7/20 23/4/20 25/5/20 
f 25/5/20 27/6/20 26/7/20 
f 27/6/21 17/2/21 19/6/21 
f 19/6/21 28/6/21 27/6/21 
f 24/3/22 18/2/22 17/2/22 
f 17/2/22 25/5/22 24/3/22 
f 28/6/23 20/1/23 22/2/23 
f 22/2/23 26/7/23 28/6/23 
f 20/1/24 19/6/24 18/2/24 
f 18/2/24 21/5/24 20/1/24 
f 23/4/25 22/2/25 21/5/25 
f 21/5/25 24/3/25 23/4/25 
f 26/7/1 22/2/1 23/4/1 
f 25/5/2 17/2/2 27/6/2 
f 19/6/4 20/1/4 28/6/4 
f 24/3/5 21/5/5 18/2/5 
# 64 faces

